<?xml version="1.0" encoding="utf-8"?>
<svg version="1.1" xmlns="http://www.w3.org/2000/svg" x="0px" y="0px"
	 viewBox="0 0 748 137" enable-background="new 0 0 748 137" xml:space="preserve">
<g>
	<path fill="#61DAFB" d="M181.46,94.56c-3.07,0-5.62-0.98-7.63-2.95c-2.02-1.97-3.02-4.46-3.02-7.49V43.8h10.37v39.31
		c0,0.91,0.43,1.37,1.3,1.37h7.63c0.43,0,0.78-0.12,1.04-0.36c0.26-0.24,0.4-0.58,0.4-1.01V43.8h10.37v40.32
		c0,3.02-1,5.52-2.99,7.49c-1.99,1.97-4.5,2.95-7.52,2.95H181.46z"/>
	<path fill="#61DAFB" d="M220.49,94.56c-1.97,0-3.77-0.46-5.4-1.37c-1.63-0.91-2.92-2.16-3.85-3.74s-1.4-3.36-1.4-5.33v-3.82h10.3
		v2.74c0,0.43,0.13,0.78,0.4,1.04c0.26,0.26,0.59,0.4,0.97,0.4h7.56c1.2,0,1.8-0.6,1.8-1.8v-1.73c0-0.91-0.36-1.63-1.08-2.16
		l-12.89-9.86c-2.4-1.82-4.14-3.52-5.22-5.08c-1.08-1.56-1.62-3.25-1.62-5.08v-4.9c0-3.02,1-5.52,2.99-7.49
		c1.99-1.97,4.55-2.95,7.67-2.95h9.58c3.02,0,5.56,0.98,7.6,2.95c2.04,1.97,3.06,4.46,3.06,7.49v3.74h-10.3v-2.66
		c0-0.43-0.13-0.78-0.4-1.04c-0.26-0.26-0.59-0.4-0.97-0.4h-7.34c-1.2,0-1.8,0.6-1.8,1.8v1.58c0,0.91,0.36,1.63,1.08,2.16
		l12.74,9.72c2.4,1.82,4.16,3.49,5.29,5c1.13,1.51,1.69,3.13,1.69,4.86v5.47c0,3.02-1,5.52-2.99,7.49
		c-1.99,1.97-4.55,2.95-7.67,2.95H220.49z"/>
	<path fill="#61DAFB" d="M279.81,43.8v10.08h-20.88v10.08h19.66v10.08h-19.66v10.08h20.88V94.2h-30.96V43.8H279.81z"/>
	<path fill="#61DAFB" d="M310.05,74.04h-24.12V63.96h24.12V74.04z"/>
	<path fill="#61DAFB" d="M346.56,57.7h-10.3v-2.74c0-0.43-0.13-0.78-0.4-1.04c-0.26-0.26-0.61-0.4-1.04-0.4h-7.63
		c-0.43,0-0.77,0.13-1.01,0.4c-0.24,0.26-0.36,0.61-0.36,1.04v28.15c0,0.91,0.46,1.37,1.37,1.37h7.63c0.43,0,0.78-0.12,1.04-0.36
		c0.26-0.24,0.4-0.58,0.4-1.01v-9.07h10.3V94.2h-10.15v-2.38c-1.49,1.82-3.34,2.74-5.54,2.74h-4.75c-3.02,0-5.56-0.98-7.6-2.95
		c-2.04-1.97-3.06-4.46-3.06-7.49V53.95c0-1.97,0.47-3.76,1.4-5.36c0.94-1.61,2.22-2.87,3.85-3.78c1.63-0.91,3.43-1.37,5.4-1.37
		h9.86c3.07,0,5.6,1,7.6,2.99c1.99,1.99,2.99,4.5,2.99,7.52V57.7z"/>
	<path fill="#61DAFB" d="M365.13,43.8v40.32h20.23V94.2h-30.89V43.8H365.13z"/>
	<path fill="#61DAFB" d="M401.35,94.56c-3.02,0-5.54-0.98-7.56-2.95c-2.02-1.97-3.02-4.46-3.02-7.49V53.88
		c0-3.02,1.01-5.52,3.02-7.49c2.02-1.97,4.54-2.95,7.56-2.95h9.86c3.02,0,5.54,0.98,7.56,2.95c2.02,1.97,3.02,4.46,3.02,7.49v30.24
		c0,3.02-1.01,5.52-3.02,7.49c-2.02,1.97-4.54,2.95-7.56,2.95H401.35z M410.13,84.48c0.91,0,1.37-0.46,1.37-1.37V54.89
		c0-0.91-0.46-1.37-1.37-1.37h-7.7c-0.38,0-0.7,0.12-0.94,0.36c-0.24,0.24-0.36,0.58-0.36,1.01v28.22c0,0.43,0.12,0.77,0.36,1.01
		c0.24,0.24,0.55,0.36,0.94,0.36H410.13z"/>
	<path fill="#61DAFB" d="M430.44,94.2V43.8h20.3c1.97,0,3.75,0.44,5.36,1.33c1.61,0.89,2.88,2.14,3.82,3.74
		c0.94,1.61,1.4,3.4,1.4,5.36v6.34c0,1.73-0.4,3.31-1.19,4.75s-1.86,2.54-3.2,3.31v0.72c1.34,0.77,2.41,1.87,3.2,3.31
		s1.19,3.02,1.19,4.75v6.34c0,3.02-1.02,5.52-3.06,7.49c-2.04,1.97-4.57,2.95-7.6,2.95H430.44z M449.88,63.96
		c0.38,0,0.71-0.12,0.97-0.36c0.26-0.24,0.4-0.58,0.4-1.01v-7.34c0-0.43-0.13-0.77-0.4-1.01c-0.26-0.24-0.59-0.36-0.97-0.36h-9.36
		v10.08H449.88z M449.88,84.12c0.38,0,0.71-0.12,0.97-0.36c0.26-0.24,0.4-0.58,0.4-1.01v-7.34c0-0.43-0.13-0.77-0.4-1.01
		c-0.26-0.24-0.59-0.36-0.97-0.36h-9.36v10.08H449.88z"/>
	<path fill="#61DAFB" d="M479.83,94.2c-3.02,0-5.54-0.98-7.56-2.95c-2.02-1.97-3.02-4.46-3.02-7.49v-9.29
		c0-3.02,1.01-5.53,3.02-7.52c2.02-1.99,4.54-2.99,7.56-2.99h10.15v-9c0-0.96-0.46-1.44-1.37-1.44h-7.78
		c-0.38,0-0.71,0.12-0.97,0.36c-0.26,0.24-0.4,0.6-0.4,1.08v2.74h-10.22v-3.82c0-3.02,1.01-5.52,3.02-7.49
		c2.02-1.97,4.54-2.95,7.56-2.95h9.65c3.02,0,5.54,0.98,7.56,2.95c2.02,1.97,3.02,4.46,3.02,7.49V94.2H479.83z M489.98,84.12V74.04
		h-9.36c-0.38,0-0.7,0.12-0.94,0.36c-0.24,0.24-0.36,0.58-0.36,1.01v7.42c0,0.38,0.12,0.7,0.36,0.94c0.24,0.24,0.55,0.36,0.94,0.36
		H489.98z"/>
	<path fill="#61DAFB" d="M519.71,43.8v40.32h20.23V94.2h-30.89V43.8H519.71z"/>
	<path fill="#61DAFB" d="M560.47,74.04h-24.12V63.96h24.12V74.04z"/>
	<path fill="#61DAFB" d="M575.8,94.56c-1.97,0-3.77-0.46-5.4-1.37c-1.63-0.91-2.92-2.16-3.85-3.74c-0.94-1.58-1.4-3.36-1.4-5.33
		v-3.82h10.3v2.74c0,0.43,0.13,0.78,0.4,1.04c0.26,0.26,0.59,0.4,0.97,0.4h7.56c1.2,0,1.8-0.6,1.8-1.8v-1.73
		c0-0.91-0.36-1.63-1.08-2.16l-12.89-9.86c-2.4-1.82-4.14-3.52-5.22-5.08c-1.08-1.56-1.62-3.25-1.62-5.08v-4.9
		c0-3.02,1-5.52,2.99-7.49c1.99-1.97,4.55-2.95,7.67-2.95h9.58c3.02,0,5.55,0.98,7.6,2.95c2.04,1.97,3.06,4.46,3.06,7.49v3.74h-10.3
		v-2.66c0-0.43-0.13-0.78-0.4-1.04c-0.26-0.26-0.59-0.4-0.97-0.4h-7.34c-1.2,0-1.8,0.6-1.8,1.8v1.58c0,0.91,0.36,1.63,1.08,2.16
		l12.74,9.72c2.4,1.82,4.16,3.49,5.29,5c1.13,1.51,1.69,3.13,1.69,4.86v5.47c0,3.02-1,5.52-2.99,7.49
		c-1.99,1.97-4.55,2.95-7.67,2.95H575.8z"/>
	<path fill="#61DAFB" d="M632.61,43.8v10.08h-10.15V94.2H611.8V53.88h-10.15V43.8H632.61z"/>
	<path fill="#61DAFB" d="M664.65,43.8h11.16l-14.69,33.05l-0.14,17.35h-10.66l-0.14-17.35L635.49,43.8h11.16l8.64,19.51h0.72
		L664.65,43.8z"/>
	<path fill="#61DAFB" d="M690.42,43.8v40.32h20.23V94.2h-30.89V43.8H690.42z"/>
	<path fill="#61DAFB" d="M747.74,43.8v10.08h-20.88v10.08h19.66v10.08h-19.66v10.08h20.88V94.2h-30.96V43.8H747.74z"/>
</g>
<g>
	<path fill="#61DAFB" d="M153.88,68.72c0-10.22-12.8-19.91-32.43-25.92c4.53-20,2.52-35.92-6.35-41.01
		c-2.04-1.2-4.43-1.76-7.05-1.76v7.01c1.45,0,2.61,0.28,3.59,0.82c4.28,2.45,6.13,11.79,4.69,23.81c-0.35,2.96-0.91,6.07-1.6,9.25
		c-6.16-1.51-12.9-2.67-19.97-3.43c-4.25-5.82-8.65-11.1-13.08-15.73c10.25-9.53,19.88-14.75,26.42-14.75V0
		c-8.65,0-19.97,6.16-31.42,16.86C65.21,6.23,53.89,0.13,45.24,0.13v7.01c6.51,0,16.17,5.19,26.42,14.66
		c-4.4,4.62-8.81,9.88-12.99,15.7c-7.11,0.75-13.84,1.92-20,3.46c-0.72-3.15-1.26-6.2-1.64-9.12c-1.48-12.02,0.35-21.36,4.59-23.84
		c0.94-0.57,2.17-0.82,3.62-0.82V0.16c-2.64,0-5.03,0.57-7.11,1.76c-8.84,5.1-10.82,20.98-6.26,40.92
		c-19.56,6.04-32.3,15.7-32.3,25.89c0,10.22,12.8,19.91,32.43,25.92c-4.53,20-2.52,35.92,6.35,41.01c2.04,1.2,4.43,1.76,7.08,1.76
		c8.65,0,19.97-6.16,31.42-16.86c11.45,10.63,22.77,16.73,31.42,16.73c2.64,0,5.03-0.57,7.11-1.76c8.84-5.1,10.82-20.98,6.26-40.92
		C141.14,88.6,153.88,78.92,153.88,68.72L153.88,68.72z M112.92,47.75c-1.16,4.06-2.61,8.24-4.25,12.42
		c-1.29-2.52-2.64-5.03-4.12-7.55c-1.45-2.52-2.99-4.97-4.53-7.36C104.49,45.92,108.8,46.74,112.92,47.75L112.92,47.75z
		 M98.52,81.24c-2.45,4.25-4.97,8.27-7.58,12.02c-4.69,0.41-9.44,0.63-14.22,0.63c-4.75,0-9.5-0.22-14.15-0.6
		c-2.61-3.74-5.16-7.74-7.61-11.95c-2.39-4.12-4.56-8.3-6.54-12.52c1.95-4.21,4.15-8.43,6.51-12.55c2.45-4.25,4.97-8.27,7.58-12.02
		c4.69-0.41,9.44-0.63,14.22-0.63c4.75,0,9.5,0.22,14.15,0.6c2.61,3.74,5.16,7.74,7.61,11.95c2.39,4.12,4.56,8.3,6.54,12.52
		C103.05,72.91,100.88,77.12,98.52,81.24L98.52,81.24z M108.68,77.15c1.7,4.21,3.15,8.43,4.34,12.52
		c-4.12,1.01-8.46,1.86-12.96,2.52c1.54-2.42,3.08-4.91,4.53-7.45C106.04,82.22,107.39,79.67,108.68,77.15L108.68,77.15z
		 M76.78,110.71c-2.93-3.02-5.85-6.38-8.74-10.06c2.83,0.13,5.72,0.22,8.65,0.22c2.96,0,5.88-0.06,8.74-0.22
		C82.6,104.33,79.68,107.7,76.78,110.71z M53.38,92.19c-4.47-0.66-8.78-1.48-12.9-2.48c1.16-4.06,2.61-8.24,4.25-12.42
		c1.29,2.52,2.64,5.03,4.12,7.55S51.84,89.8,53.38,92.19z M76.63,26.74c2.93,3.02,5.85,6.38,8.74,10.06
		c-2.83-0.13-5.72-0.22-8.65-0.22c-2.96,0-5.88,0.06-8.74,0.22C70.81,33.12,73.73,29.75,76.63,26.74z M53.35,45.26
		c-1.54,2.42-3.08,4.91-4.53,7.45c-1.45,2.52-2.8,5.03-4.09,7.55c-1.7-4.21-3.15-8.43-4.34-12.52
		C44.51,46.77,48.85,45.92,53.35,45.26L53.35,45.26z M24.89,84.64C13.75,79.89,6.55,73.66,6.55,68.72c0-4.94,7.2-11.2,18.34-15.92
		c2.7-1.16,5.66-2.2,8.71-3.18c1.79,6.16,4.15,12.58,7.08,19.15c-2.89,6.54-5.22,12.93-6.98,19.06
		C30.58,86.87,27.62,85.8,24.89,84.64L24.89,84.64z M41.81,129.59c-4.28-2.45-6.13-11.79-4.69-23.81c0.35-2.96,0.91-6.07,1.6-9.25
		c6.16,1.51,12.9,2.67,19.97,3.43c4.25,5.82,8.65,11.1,13.08,15.73c-10.25,9.53-19.88,14.75-26.42,14.75
		C43.95,130.4,42.75,130.12,41.81,129.59L41.81,129.59z M116.42,105.62c1.48,12.02-0.35,21.36-4.59,23.84
		c-0.94,0.57-2.17,0.82-3.62,0.82c-6.51,0-16.17-5.19-26.42-14.66c4.4-4.62,8.81-9.88,12.99-15.7c7.11-0.75,13.84-1.92,20-3.46
		C115.5,99.64,116.07,102.69,116.42,105.62z M128.52,84.64c-2.7,1.16-5.66,2.2-8.71,3.18c-1.79-6.16-4.15-12.58-7.08-19.15
		c2.89-6.54,5.22-12.93,6.98-19.06c3.11,0.98,6.07,2.04,8.84,3.21c11.13,4.75,18.34,10.98,18.34,15.92
		C146.86,73.66,139.66,79.92,128.52,84.64L128.52,84.64z"/>
	<circle fill="#61DAFB" cx="76.69" cy="68.72" r="14.37"/>
</g>
</svg>
